<mxfile host="app.diagrams.net" agent="Mozilla/5.0 (X11; Linux x86_64) AppleWebKit/537.36 (KHTML, like Gecko) Chrome/137.0.0.0 Safari/537.36" version="27.1.6">
  <diagram name="Page-1" id="A_8Jg40AoGhgTo293gtW">
    <mxGraphModel dx="983" dy="495" grid="1" gridSize="10" guides="1" tooltips="1" connect="1" arrows="1" fold="1" page="1" pageScale="1" pageWidth="850" pageHeight="1100" math="0" shadow="0">
      <root>
        <mxCell id="0" />
        <mxCell id="1" parent="0" />
        <mxCell id="Y-QjeG0Aiv5TrMCHEaSk-3" style="edgeStyle=orthogonalEdgeStyle;rounded=0;orthogonalLoop=1;jettySize=auto;html=1;entryX=0;entryY=0.5;entryDx=0;entryDy=0;" edge="1" parent="1" source="Y-QjeG0Aiv5TrMCHEaSk-1" target="Y-QjeG0Aiv5TrMCHEaSk-2">
          <mxGeometry relative="1" as="geometry" />
        </mxCell>
        <mxCell id="Y-QjeG0Aiv5TrMCHEaSk-1" value="Nhấn nút&amp;nbsp;&lt;div&gt;&lt;span style=&quot;background-color: transparent; color: light-dark(rgb(0, 0, 0), rgb(255, 255, 255));&quot;&gt;thiết bị&lt;/span&gt;&lt;/div&gt;" style="rounded=1;whiteSpace=wrap;html=1;" vertex="1" parent="1">
          <mxGeometry x="120" y="280" width="120" height="60" as="geometry" />
        </mxCell>
        <mxCell id="Y-QjeG0Aiv5TrMCHEaSk-11" value="" style="edgeStyle=orthogonalEdgeStyle;rounded=0;orthogonalLoop=1;jettySize=auto;html=1;" edge="1" parent="1" source="Y-QjeG0Aiv5TrMCHEaSk-2" target="Y-QjeG0Aiv5TrMCHEaSk-5">
          <mxGeometry relative="1" as="geometry" />
        </mxCell>
        <mxCell id="Y-QjeG0Aiv5TrMCHEaSk-2" value="AI phân tích,&lt;div&gt;dự đoán ngày&amp;nbsp;&lt;/div&gt;&lt;div&gt;hết hạn&lt;/div&gt;" style="rounded=1;whiteSpace=wrap;html=1;" vertex="1" parent="1">
          <mxGeometry x="360" y="280" width="120" height="60" as="geometry" />
        </mxCell>
        <mxCell id="Y-QjeG0Aiv5TrMCHEaSk-4" value="Chụp ảnh" style="text;html=1;align=center;verticalAlign=middle;whiteSpace=wrap;rounded=0;" vertex="1" parent="1">
          <mxGeometry x="270" y="280" width="60" height="30" as="geometry" />
        </mxCell>
        <mxCell id="Y-QjeG0Aiv5TrMCHEaSk-12" style="edgeStyle=orthogonalEdgeStyle;rounded=0;orthogonalLoop=1;jettySize=auto;html=1;entryX=1;entryY=0.5;entryDx=0;entryDy=0;" edge="1" parent="1" source="Y-QjeG0Aiv5TrMCHEaSk-5" target="Y-QjeG0Aiv5TrMCHEaSk-8">
          <mxGeometry relative="1" as="geometry" />
        </mxCell>
        <mxCell id="Y-QjeG0Aiv5TrMCHEaSk-5" value="Ứng dụng&lt;div&gt;mobile&lt;/div&gt;" style="rounded=1;whiteSpace=wrap;html=1;" vertex="1" parent="1">
          <mxGeometry x="360" y="400" width="120" height="60" as="geometry" />
        </mxCell>
        <mxCell id="Y-QjeG0Aiv5TrMCHEaSk-7" value="Gửi thông báo" style="text;html=1;align=center;verticalAlign=middle;whiteSpace=wrap;rounded=0;" vertex="1" parent="1">
          <mxGeometry x="425" y="350" width="80" height="30" as="geometry" />
        </mxCell>
        <mxCell id="Y-QjeG0Aiv5TrMCHEaSk-8" value="Hoàn thiện" style="rounded=1;whiteSpace=wrap;html=1;" vertex="1" parent="1">
          <mxGeometry x="120" y="400" width="120" height="60" as="geometry" />
        </mxCell>
        <mxCell id="Y-QjeG0Aiv5TrMCHEaSk-10" value="Cập nhật một số thông tin khác" style="text;html=1;align=center;verticalAlign=middle;whiteSpace=wrap;rounded=0;" vertex="1" parent="1">
          <mxGeometry x="250" y="393" width="100" height="30" as="geometry" />
        </mxCell>
      </root>
    </mxGraphModel>
  </diagram>
</mxfile>
